<svg xmlns="http://www.w3.org/2000/svg" viewBox="0 0 255.28 328.73"><defs><style>.cls-1,.cls-15{fill:#f39f7d;}.cls-2{fill:#fff;}.cls-3{fill:#ffc542;}.cls-4{fill:#e15235;}.cls-5{fill:#f9fdfc;}.cls-6{fill:#fffeff;}.cls-11,.cls-14,.cls-7{fill:none;}.cls-10,.cls-14,.cls-15,.cls-7{stroke:#661b04;}.cls-15,.cls-7{stroke-linecap:round;stroke-linejoin:round;}.cls-10,.cls-11,.cls-14,.cls-15,.cls-7{stroke-width:5px;}.cls-8{fill:#4c180c;}.cls-9{fill:#fda295;}.cls-10,.cls-13{fill:#da452e;}.cls-10,.cls-11,.cls-14{stroke-miterlimit:10;}.cls-11{stroke:#ffc542;}.cls-12{font-size:102.78px;fill:#16142b;font-family:Muyao-Softbrush;}.cls-16{fill:#661b04;}.cls-17{fill:#160501;}</style></defs><title>小牛送福</title><g id="图层_2" data-name="图层 2"><g id="图层_5" data-name="图层 5"><path class="cls-1" d="M252.78,74.24c.29,8.2-17.49,19.29-27.54,15.61a97.67,97.67,0,0,1-4.16-9.9,72.12,72.12,0,0,0-8.4-16.48v0h0c.71.46,9.67,5.78,36.41,7.21A3.83,3.83,0,0,1,252.78,74.24Z"/><path class="cls-2" d="M199.15,201.44c-14,5.47-32.23,8.92-56,9.3-4.93.06-10.1,0-15.52-.18-5.41.2-10.57.24-15.5.18-23.78-.38-42-3.83-56-9.32C27.58,190.23,16.82,170.56,13,151.15a52.74,52.74,0,0,1,0-22.2c37.16-20.67,62.54-14.67,88.94-9.11,19.27,4.06,25.91,2.88,25.91,2.88s6.65,1.18,25.92-2.88c26.24-5.52,51.49-11.5,88.32,8.78a52.82,52.82,0,0,1,.09,22.53C238.45,170.56,227.67,190.23,199.15,201.44Z"/><path class="cls-1" d="M170.89,92.68l0,0a12.6,12.6,0,0,0-10-5,13,13,0,1,0,12.7,13,13.13,13.13,0,0,0-1.81-6.7C171.46,93.5,171.19,93.09,170.89,92.68Zm-86.51,0c-.3.41-.57.82-.83,1.25a13.32,13.32,0,0,0-1.81,6.7,12.7,12.7,0,1,0,12.7-13,12.6,12.6,0,0,0-10,5ZM42.89,63.05a.13.13,0,0,0,0,0,65.09,65.09,0,0,1,6.88-8.23A101.71,101.71,0,0,1,73.13,37.18c27.61-15.24,54.5-14,54.5-14s26.94-1.2,54.57,14.06a102.51,102.51,0,0,1,23.29,17.57,66.16,66.16,0,0,1,7.17,8.67s0,0,0,0A72.12,72.12,0,0,1,221.08,80a97.67,97.67,0,0,0,4.16,9.9c3.08,6.32,6.41,11.76,10.35,20.34a92.2,92.2,0,0,1,6.56,18.43c-36.83-20.28-62.08-14.3-88.32-8.78-19.27,4.06-25.92,2.88-25.92,2.88s-6.64,1.18-25.91-2.88c-26.4-5.56-51.78-11.56-88.94,9.11a90.71,90.71,0,0,1,6.62-18.76c3.95-8.58,7.3-14,10.36-20.36A96.18,96.18,0,0,0,34.21,80,71.28,71.28,0,0,1,42.89,63.05Z"/><path class="cls-3" d="M226.87,26.85A70.33,70.33,0,0,1,225,44.8l-.19,0c-14.93,2-29.52-15.7-30.52-16.95,3.11-3,6.86-6.89,11.33-12C212.68,26,226.25,26.82,226.87,26.85Z"/><path class="cls-3" d="M224.77,44.75l.19,0c-2,7.83-5.8,14.78-12.25,18.65h-.05a66.16,66.16,0,0,0-7.17-8.67A102.51,102.51,0,0,0,182.2,37.2s3.63-1.3,12.05-9.4C195.25,29.05,209.84,46.74,224.77,44.75Z"/><path class="cls-3" d="M223.85,6.22c1.51,4.1,2.92,11.93,3,20.63-.62,0-14.19-.87-21.29-11,2.88-3.31,6.06-7.09,9.56-11.46C217.38,1.5,222.24,1.82,223.85,6.22Z"/><path class="cls-4" d="M204.85,214.42c4.87,13.08,10.56,34.39,6.8,56.1,0,0-20,11.62-50.82,3.31-20.48-5.52-21.54-31.6-20-48.43l.46,0c45.94,5.81,63.5-11,63.5-11Z"/><path class="cls-1" d="M120.82,314.37c0,2.63-.85,7.57-7.51,10.45-2.52,1.1-17.23,2.15-27.78.71-9.72-1.33-18.06-1.8-27.27-15.72-6-9.12-6.11-12.32-12.44-30a72.11,72.11,0,0,1-2.2-9.25s20,11.62,50.82,3.31c20.57-5.54,21.55-31.78,20-48.61a115.88,115.88,0,0,0-2.26-14.42v-.06c4.93.06,10.09,0,15.5-.18,5.42.2,10.59.24,15.52.18v.06a118.84,118.84,0,0,0-2.27,14.6c-1.59,16.83-.53,42.91,20,48.43,30.8,8.31,50.82-3.31,50.82-3.31a72.11,72.11,0,0,1-2.2,9.25c-6.32,17.72-6.41,20.92-12.44,30-9.22,13.92-17.56,14.39-27.27,15.72-10.55,1.44-25.26.39-27.78-.71-6.66-2.88-7.49-7.91-7.49-10.55A44.72,44.72,0,0,1,120.82,314.37Z"/><path class="cls-2" d="M204.85,214.42h0s-17.56,16.83-63.5,11l-.46,0a118.84,118.84,0,0,1,2.27-14.6v-.06c23.77-.38,42-3.83,56-9.3A111.52,111.52,0,0,1,204.85,214.42Z"/><path class="cls-5" d="M171.72,93.93a13.13,13.13,0,0,1,1.81,6.7,12.7,12.7,0,1,1-12.7-13,12.6,12.6,0,0,1,10,5l0,0C171.19,93.09,171.46,93.5,171.72,93.93Zm-10.29,7.15a.6.6,0,1,0-.6.62A.6.6,0,0,0,161.43,101.08Z"/><path class="cls-6" d="M160.83,100.48a.61.61,0,1,1-.6.6A.6.6,0,0,1,160.83,100.48Z"/><path class="cls-4" d="M114.39,225.22c1.6,16.83.62,43.07-20,48.61-30.8,8.31-50.82-3.31-50.82-3.31-3.8-21.91,2-43.42,6.92-56.46,0,0,17.9,17,63.84,11.16Z"/><path class="cls-2" d="M114.39,225.22h0c-45.94,5.8-63.84-11.16-63.84-11.16a110.65,110.65,0,0,1,5.56-12.64c14,5.49,32.25,8.94,56,9.32v.06A115.88,115.88,0,0,1,114.39,225.22Z"/><path class="cls-5" d="M94.44,87.63a13,13,0,1,1-12.7,13,13.32,13.32,0,0,1,1.81-6.7c.26-.43.53-.84.83-1.25l0,0A12.6,12.6,0,0,1,94.44,87.63Z"/><path class="cls-3" d="M61.8,28.28c5.72,5.36,9.46,7.83,11.33,8.9A101.71,101.71,0,0,0,49.8,54.77,65.09,65.09,0,0,0,42.92,63a.07.07,0,0,1,0,0c-6.08-3.65-9.81-10-12-17.18C50.16,45.09,61.79,28.3,61.79,28.3Z"/><path class="cls-3" d="M61.8,28.28v0S50.16,45.09,30.93,45.85a67.2,67.2,0,0,1-2.43-19S44.25,25.6,49.72,15.77C54.44,21.11,58.46,25.19,61.8,28.28Z"/><path class="cls-1" d="M42.88,63v0A71.28,71.28,0,0,0,34.21,80,96.18,96.18,0,0,1,30,89.83C20,93.51,2.2,82.44,2.5,74.24a3.82,3.82,0,0,1,3.67-3.58C33,69.23,42.23,63.45,42.88,63Z"/><path class="cls-3" d="M40.15,4.34c3.47,4.34,6.65,8.12,9.57,11.43C44.25,25.6,28.5,26.85,28.5,26.85c.05-8.69,1.39-16.51,2.91-20.63C33,1.82,37.88,1.5,40.15,4.34Z"/><path class="cls-7" d="M56.1,201.42a110.65,110.65,0,0,0-5.56,12.64c-4.9,13-10.72,34.55-6.92,56.46a72.11,72.11,0,0,0,2.2,9.25c6.33,17.72,6.41,20.92,12.44,30,9.21,13.92,17.55,14.39,27.27,15.72,10.55,1.44,25.26.39,27.78-.71,6.66-2.88,7.51-7.82,7.51-10.45"/><path class="cls-7" d="M74.56,37.91a12.85,12.85,0,0,1-1.43-.73c-1.87-1.07-5.61-3.54-11.33-8.9-3.34-3.09-7.36-7.17-12.08-12.51-2.92-3.31-6.1-7.09-9.57-11.43C37.88,1.5,33,1.82,31.41,6.22c-1.52,4.12-2.86,11.94-2.91,20.63a67.2,67.2,0,0,0,2.43,19c2.14,7.21,5.87,13.53,12,17.18v0h0"/><path class="cls-7" d="M42.92,63a.07.07,0,0,1,0,0c-.65.42-9.87,6.2-36.71,7.63A3.82,3.82,0,0,0,2.5,74.24C2.2,82.44,20,93.51,30,89.83"/><path class="cls-7" d="M28.5,26.85S44.25,25.6,49.72,15.77"/><path class="cls-7" d="M61.79,28.3S50.16,45.09,30.93,45.85"/><path class="cls-7" d="M127.91,122.72s-6.64,1.18-25.91-2.88c-26.4-5.56-51.78-11.56-88.94,9.11"/><path class="cls-7" d="M127.91,122.72s6.65,1.18,25.92-2.88c26.24-5.52,51.49-11.5,88.32,8.78"/><path class="cls-7" d="M84.41,92.65a12.6,12.6,0,0,1,10-5,13,13,0,1,1-12.7,13,13.32,13.32,0,0,1,1.81-6.7c.26-.43.53-.84.83-1.25"/><path class="cls-7" d="M102.71,74s-.4-2.93-3.34-1"/><path class="cls-7" d="M112.13,210.8a115.88,115.88,0,0,1,2.26,14.42c1.6,16.83.62,43.07-20,48.61-30.8,8.31-50.82-3.31-50.82-3.31"/><polyline class="cls-7" points="130.71 285.48 127.33 287.54 122.91 290.24"/><polyline class="cls-7" points="123.64 283.72 127.33 287.54 130.71 291.02"/><path class="cls-7" d="M50.54,214.06s17.9,17,63.84,11.16"/><path class="cls-7" d="M84.41,92.65l0,0a5.68,5.68,0,0,1-6.77,1.16"/><path class="cls-7" d="M199.14,201.42v0a111.52,111.52,0,0,1,5.7,13c4.87,13.08,10.56,34.39,6.8,56.1a72.11,72.11,0,0,1-2.2,9.25c-6.32,17.72-6.41,20.92-12.44,30-9.22,13.92-17.56,14.39-27.27,15.72-10.55,1.44-25.26.39-27.78-.71-6.66-2.88-7.49-7.91-7.49-10.55"/><path class="cls-7" d="M242.15,128.62a92.2,92.2,0,0,0-6.56-18.43c-3.94-8.58-7.27-14-10.35-20.34a97.67,97.67,0,0,1-4.16-9.9,72.12,72.12,0,0,0-8.4-16.48s0,0,0,0a66.16,66.16,0,0,0-7.17-8.67A102.51,102.51,0,0,0,182.2,37.2c-27.63-15.26-54.57-14.06-54.57-14.06s-26.89-1.2-54.5,14A101.71,101.71,0,0,0,49.8,54.77,65.09,65.09,0,0,0,42.92,63a.13.13,0,0,1,0,0A71.28,71.28,0,0,0,34.21,80,96.18,96.18,0,0,1,30,89.83c-3.06,6.34-6.41,11.78-10.36,20.36A90.71,90.71,0,0,0,13.06,129a52.74,52.74,0,0,0,0,22.2c3.79,19.41,14.55,39.08,43.07,50.27,14,5.49,32.25,8.94,56,9.32,4.93.06,10.09,0,15.5-.18,5.42.2,10.59.24,15.52.18,23.77-.38,42-3.83,56-9.3,28.52-11.21,39.3-30.88,43.09-50.29a52.82,52.82,0,0,0-.09-22.53"/><path class="cls-7" d="M212.69,63.45v0h0"/><path class="cls-7" d="M182.2,37.2s3.63-1.3,12.05-9.4c3.11-3,6.86-6.89,11.33-12,2.88-3.31,6.06-7.09,9.56-11.46,2.24-2.84,7.1-2.52,8.71,1.88,1.51,4.1,2.92,11.93,3,20.63A70.33,70.33,0,0,1,225,44.8c-2,7.83-5.8,14.78-12.25,18.65"/><path class="cls-7" d="M212.66,63.44h.05c.71.46,9.67,5.78,36.41,7.21a3.83,3.83,0,0,1,3.66,3.58c.29,8.2-17.49,19.29-27.54,15.61"/><path class="cls-7" d="M226.89,26.85h0c-.62,0-14.19-.87-21.29-11,0,0,0,0,0,0"/><path class="cls-7" d="M194.17,27.73a.3.3,0,0,0,.08.07c1,1.25,15.59,18.94,30.52,17"/><path class="cls-7" d="M170.86,92.65a12.6,12.6,0,0,0-10-5,13,13,0,1,0,12.7,13,13.13,13.13,0,0,0-1.81-6.7c-.26-.43-.53-.84-.83-1.25"/><path class="cls-7" d="M154.24,76.8s.38-2.92,3.32-1"/><path class="cls-7" d="M97.26,147.19s-3.2,13.34,30.44,14h2.14c33.64-.62,30.43-14,30.43-14"/><path class="cls-7" d="M143.15,210.8a118.84,118.84,0,0,0-2.27,14.6c-1.59,16.83-.53,42.91,20,48.43,30.8,8.31,50.82-3.31,50.82-3.31"/><path class="cls-7" d="M204.84,214.42s-17.56,16.83-63.5,11"/><path class="cls-7" d="M170.86,92.65l0,0a5.7,5.7,0,0,0,6.77,1.16"/><path class="cls-7" d="M83.34,130.14s7-3.39,7,1.14"/><path class="cls-7" d="M173.14,128.46s1.43,0,1.91,1"/><path class="cls-7" d="M106,309.43a41.86,41.86,0,0,0,14.8,4.94,44.72,44.72,0,0,0,13.65-.1,46.61,46.61,0,0,0,14.37-4.84"/><ellipse class="cls-8" cx="95.36" cy="103.38" rx="10.45" ry="9.57"/><ellipse class="cls-6" cx="95.96" cy="104.51" rx="1.7" ry="1.74"/><ellipse class="cls-6" cx="92.77" cy="99.86" rx="0.6" ry="0.62"/><ellipse class="cls-8" cx="159.31" cy="104.05" rx="9.35" ry="9.57"/><ellipse class="cls-6" cx="157.6" cy="103.38" rx="1.7" ry="1.74"/><path class="cls-4" d="M129.78,39.06s3.07,3.46-2,8.2c-4.38,4.73-10.87,11-5.37,16.57,1.27,1.84,6.67,2.33,10.27,1.53,3.67-1.27,7.93-4.81,4.32-9.07-2.72-3.34-3-3.9-2.36-5.69a2.66,2.66,0,0,0-1.78,3.26c-.53.16-1.89-1.15-1-4.13S134.27,41.93,129.78,39.06Z"/><ellipse class="cls-6" cx="162.04" cy="101.7" rx="0.6" ry="0.62"/><ellipse class="cls-9" cx="58.37" cy="153.93" rx="19.25" ry="14.33"/><ellipse class="cls-9" cx="193.34" cy="153.93" rx="19.25" ry="14.33"/><path class="cls-2" d="M87.07,241.11a5.46,5.46,0,1,0,5.46,5.46A5.45,5.45,0,0,0,87.07,241.11ZM89,248.45H85.19v-3.76H89Z"/><path class="cls-2" d="M60.68,231.56A5.46,5.46,0,1,0,66.14,237,5.45,5.45,0,0,0,60.68,231.56Zm1.88,7.34H58.8v-3.76h3.76Z"/><path class="cls-2" d="M68.72,255.94a5.46,5.46,0,1,0,5.46,5.46A5.46,5.46,0,0,0,68.72,255.94Zm1.88,7.34H66.84v-3.76H70.6Z"/><path class="cls-2" d="M162,237a5.46,5.46,0,1,0,5.47,5.46A5.46,5.46,0,0,0,162,237Zm1.88,7.34h-3.75V240.6h3.75Z"/><path class="cls-2" d="M193,230a5.47,5.47,0,1,0,5.46,5.47A5.46,5.46,0,0,0,193,230Zm1.88,7.35h-3.76v-3.76h3.76Z"/><path class="cls-2" d="M179.9,257.88a5.46,5.46,0,1,0,5.46,5.46A5.45,5.45,0,0,0,179.9,257.88Zm1.88,7.34H178v-3.76h3.76Z"/><path class="cls-7" d="M107.14,100.63a12.7,12.7,0,1,1-25.4,0,13.13,13.13,0,0,1,1.81-6.69,12.63,12.63,0,0,1,10.89-6.3A12.85,12.85,0,0,1,107.14,100.63Z"/><path class="cls-7" d="M148.13,100.63a12.7,12.7,0,1,0,25.4,0,13.13,13.13,0,0,0-1.81-6.69,12.62,12.62,0,0,0-10.89-6.3A12.85,12.85,0,0,0,148.13,100.63Z"/><rect class="cls-10" x="69.95" y="187.78" width="129.08" height="129.08" transform="translate(-36.17 22.91) rotate(-8.59)"/><rect class="cls-11" x="79.06" y="196.9" width="110.85" height="110.85" transform="translate(-94.93 422.97) rotate(-98.59)"/><text class="cls-12" transform="matrix(0.8, 0.59, -0.59, 0.8, 67.35, 255.25)">福</text><path class="cls-13" d="M194.42,217l-5.76-38.12L61,198.14,63,209a5.06,5.06,0,0,0,1.27,2.55l2.85,3.06"/><path class="cls-14" d="M194.32,217l-5.75-38.11L61,198.14s-.36,7.4,1.86,12.3c.73,1.6,3.7,6.19,3.7,6.19"/><polyline class="cls-11" points="185.65 219.92 181.01 189.24 71.4 205.79 73.63 220.54"/><path class="cls-1" d="M252.78,74.24c.29,8.2-17.49,19.29-27.54,15.61a97.67,97.67,0,0,1-4.16-9.9,72.12,72.12,0,0,0-8.4-16.48v0h0c.71.46,9.67,5.78,36.41,7.21A3.83,3.83,0,0,1,252.78,74.24Z"/><path class="cls-2" d="M242.06,128.29a52.62,52.62,0,0,1,.18,22.86c-6,30.89-29.77,62.46-114.61,59.41C42.8,213.61,19.05,182,13,151.15a52.74,52.74,0,0,1,0-22.2c37.16-20.67,62.54-14.67,88.94-9.11,19.27,4.06,25.91,2.88,25.91,2.88s6.65,1.18,25.92-2.88c26.29-5.53,51-11.85,87.88,8.53Z"/><path class="cls-1" d="M170.89,92.68l0,0a12.6,12.6,0,0,0-10-5,13,13,0,1,0,12.7,13,13.13,13.13,0,0,0-1.81-6.7C171.46,93.5,171.19,93.09,170.89,92.68Zm-128-29.63a.13.13,0,0,0,0,0,65.09,65.09,0,0,1,6.88-8.23A102.17,102.17,0,0,1,73.3,37.08c27.55-15.14,54.33-13.94,54.33-13.94s26.94-1.2,54.57,14.06a102.51,102.51,0,0,1,23.29,17.57,66.16,66.16,0,0,1,7.17,8.67s0,0,0,0A72.12,72.12,0,0,1,221.08,80a97.67,97.67,0,0,0,4.16,9.9c3.08,6.32,6.41,11.76,10.35,20.34a92.5,92.5,0,0,1,6.47,18.1l-.35.08c-36.92-20.38-61.59-14.06-87.88-8.53-19.27,4.06-25.92,2.88-25.92,2.88s-6.64,1.18-25.91-2.88c-26.4-5.56-51.78-11.56-88.94,9.11a90.71,90.71,0,0,1,6.62-18.76c3.95-8.58,7.3-14,10.36-20.36A96.18,96.18,0,0,0,34.21,80,71.28,71.28,0,0,1,42.89,63.05ZM84.38,92.68c-.3.41-.57.82-.83,1.25a13.32,13.32,0,0,0-1.81,6.7,12.7,12.7,0,1,0,12.7-13,12.6,12.6,0,0,0-10,5Z"/><path class="cls-3" d="M226.87,26.85A70.33,70.33,0,0,1,225,44.8l-.19,0c-14.93,2-29.52-15.7-30.52-16.95,3.11-3,6.86-6.89,11.33-12C212.68,26,226.25,26.82,226.87,26.85Z"/><path class="cls-3" d="M224.77,44.75l.19,0c-2,7.83-5.8,14.78-12.25,18.65h-.05a66.16,66.16,0,0,0-7.17-8.67A102.51,102.51,0,0,0,182.2,37.2s3.63-1.3,12.05-9.4C195.25,29.05,209.84,46.74,224.77,44.75Z"/><path class="cls-3" d="M223.85,6.22c1.51,4.1,2.92,11.93,3,20.63-.62,0-14.19-.87-21.29-11,2.88-3.31,6.06-7.09,9.56-11.46C217.38,1.5,222.24,1.82,223.85,6.22Z"/><path class="cls-5" d="M171.72,93.93a13.13,13.13,0,0,1,1.81,6.7,12.7,12.7,0,1,1-12.7-13,12.6,12.6,0,0,1,10,5l0,0C171.19,93.09,171.46,93.5,171.72,93.93Zm-10.29,7.15a.6.6,0,1,0-.6.62A.6.6,0,0,0,161.43,101.08Z"/><path class="cls-6" d="M160.83,100.48a.61.61,0,1,1-.6.6A.6.6,0,0,1,160.83,100.48Z"/><path class="cls-5" d="M94.44,87.63a13,13,0,1,1-12.7,13,13.32,13.32,0,0,1,1.81-6.7c.26-.43.53-.84.83-1.25l0,0A12.6,12.6,0,0,1,94.44,87.63Z"/><path class="cls-3" d="M61.74,28.36c8,7.53,11.56,8.72,11.56,8.72A102.17,102.17,0,0,0,49.8,54.77,65.09,65.09,0,0,0,42.92,63a.07.07,0,0,1,0,0c-6.08-3.65-9.81-10-12-17.18C49.5,45.12,61,29.43,61.74,28.36Z"/><path class="cls-3" d="M61.74,28.36C61,29.43,49.5,45.12,30.93,45.85a67.2,67.2,0,0,1-2.43-19S44.23,25.6,49.71,15.78C54.5,21.24,58.5,25.33,61.74,28.36Z"/><path class="cls-1" d="M42.88,63v0A71.28,71.28,0,0,0,34.21,80,96.18,96.18,0,0,1,30,89.83C20,93.51,2.2,82.44,2.5,74.24a3.82,3.82,0,0,1,3.67-3.58C33,69.23,42.23,63.45,42.88,63Z"/><path class="cls-3" d="M40.15,4.34c3.48,4.37,6.66,8.15,9.56,11.44C44.23,25.6,28.5,26.85,28.5,26.85c.05-8.69,1.39-16.51,2.91-20.63C33,1.82,37.88,1.5,40.15,4.34Z"/><path class="cls-7" d="M73.3,37.08s-3.52-1.19-11.56-8.72c-3.24-3-7.24-7.12-12-12.58-2.9-3.29-6.08-7.07-9.56-11.44C37.88,1.5,33,1.82,31.41,6.22c-1.52,4.12-2.86,11.94-2.91,20.63a67.2,67.2,0,0,0,2.43,19c2.14,7.21,5.87,13.53,12,17.18v0h0"/><path class="cls-7" d="M42.92,63a.07.07,0,0,1,0,0c-.65.42-9.87,6.2-36.71,7.63A3.82,3.82,0,0,0,2.5,74.24C2.2,82.44,20,93.51,30,89.83"/><path class="cls-7" d="M28.5,26.85S44.23,25.6,49.71,15.78h0"/><path class="cls-7" d="M61.79,28.3a.16.16,0,0,0,0,.06C61,29.43,49.5,45.12,30.93,45.85"/><path class="cls-7" d="M127.91,122.72s-6.64,1.18-25.91-2.88c-26.4-5.56-51.78-11.56-88.94,9.11"/><path class="cls-7" d="M127.91,122.72s6.65,1.18,25.92-2.88c26.29-5.53,51-11.85,87.88,8.53"/><path class="cls-7" d="M84.41,92.65a12.6,12.6,0,0,1,10-5,13,13,0,1,1-12.7,13,13.32,13.32,0,0,1,1.81-6.7c.26-.43.53-.84.83-1.25"/><path class="cls-7" d="M102.71,74s-.4-2.93-3.34-1"/><path class="cls-7" d="M84.41,92.65l0,0a5.68,5.68,0,0,1-6.77,1.16"/><path class="cls-7" d="M242.06,128.29a92.5,92.5,0,0,0-6.47-18.1c-3.94-8.58-7.27-14-10.35-20.34a97.67,97.67,0,0,1-4.16-9.9,72.12,72.12,0,0,0-8.4-16.48s0,0,0,0a66.16,66.16,0,0,0-7.17-8.67A102.51,102.51,0,0,0,182.2,37.2c-27.63-15.26-54.57-14.06-54.57-14.06s-26.78-1.2-54.33,13.94A102.17,102.17,0,0,0,49.8,54.77,65.09,65.09,0,0,0,42.92,63a.13.13,0,0,1,0,0A71.28,71.28,0,0,0,34.21,80,96.18,96.18,0,0,1,30,89.83c-3.06,6.34-6.41,11.78-10.36,20.36A90.71,90.71,0,0,0,13.06,129a52.74,52.74,0,0,0,0,22.2c6,30.89,29.77,62.46,114.6,59.41,84.84,3.05,108.59-28.52,114.61-59.41A52.62,52.62,0,0,0,242.06,128.29Z"/><path class="cls-7" d="M212.69,63.45v0h0"/><path class="cls-7" d="M182.2,37.2s3.63-1.3,12.05-9.4c3.11-3,6.86-6.89,11.33-12,2.88-3.31,6.06-7.09,9.56-11.46,2.24-2.84,7.1-2.52,8.71,1.88,1.51,4.1,2.92,11.93,3,20.63A70.33,70.33,0,0,1,225,44.8c-2,7.83-5.8,14.78-12.25,18.65"/><path class="cls-7" d="M212.66,63.44h.05c.71.46,9.67,5.78,36.41,7.21a3.83,3.83,0,0,1,3.66,3.58c.29,8.2-17.49,19.29-27.54,15.61"/><path class="cls-7" d="M226.89,26.85h0c-.62,0-14.19-.87-21.29-11,0,0,0,0,0,0"/><path class="cls-7" d="M194.17,27.73a.3.3,0,0,0,.08.07c1,1.25,15.59,18.94,30.52,17"/><path class="cls-7" d="M170.86,92.65a12.6,12.6,0,0,0-10-5,13,13,0,1,0,12.7,13,13.13,13.13,0,0,0-1.81-6.7c-.26-.43-.53-.84-.83-1.25"/><path class="cls-7" d="M154.24,76.8s.38-2.92,3.32-1"/><path class="cls-7" d="M97.26,147.19s-3.2,13.34,30.44,14h2.14c33.64-.62,30.43-14,30.43-14"/><path class="cls-7" d="M170.86,92.65l0,0a5.7,5.7,0,0,0,6.77,1.16"/><path class="cls-7" d="M83.34,130.14s7-3.39,7,1.14"/><path class="cls-7" d="M173.14,128.46s1.43,0,1.91,1"/><ellipse class="cls-8" cx="95.36" cy="103.38" rx="10.45" ry="9.57"/><ellipse class="cls-6" cx="95.96" cy="104.51" rx="1.7" ry="1.74"/><ellipse class="cls-6" cx="92.77" cy="99.86" rx="0.6" ry="0.62"/><ellipse class="cls-8" cx="159.31" cy="104.05" rx="9.35" ry="9.57"/><ellipse class="cls-6" cx="157.6" cy="103.38" rx="1.7" ry="1.74"/><path class="cls-4" d="M129.78,39.06s3.07,3.46-2,8.2c-4.38,4.73-10.87,11-5.37,16.57,1.27,1.84,6.67,2.33,10.27,1.53,3.67-1.27,7.93-4.81,4.32-9.07-2.72-3.34-3-3.9-2.36-5.69a2.66,2.66,0,0,0-1.78,3.26c-.53.16-1.89-1.15-1-4.13S134.27,41.93,129.78,39.06Z"/><ellipse class="cls-6" cx="162.04" cy="101.7" rx="0.6" ry="0.62"/><ellipse class="cls-9" cx="58.37" cy="153.93" rx="19.25" ry="14.33"/><ellipse class="cls-9" cx="193.34" cy="153.93" rx="19.25" ry="14.33"/><path class="cls-7" d="M107.14,100.63a12.7,12.7,0,1,1-25.4,0,13.13,13.13,0,0,1,1.81-6.69,12.63,12.63,0,0,1,10.89-6.3A12.85,12.85,0,0,1,107.14,100.63Z"/><path class="cls-7" d="M148.13,100.63a12.7,12.7,0,1,0,25.4,0,13.13,13.13,0,0,0-1.81-6.69,12.62,12.62,0,0,0-10.89-6.3A12.85,12.85,0,0,0,148.13,100.63Z"/><path class="cls-15" d="M204.84,198.68s36.07,27.28,20.88,52.14c-4.39,7.2-11.74,15.06-24,14.4-14.88-.81-22.91-13.9-13.2-20.53,16.34-11.15-4-38.71-4-38.71Z"/><rect class="cls-10" x="69.95" y="187.78" width="129.08" height="129.08" transform="translate(-36.17 22.91) rotate(-8.59)"/><rect class="cls-11" x="79.06" y="196.9" width="110.85" height="110.85" transform="translate(-94.93 422.97) rotate(-98.59)"/><path class="cls-1" d="M204.84,199s36.07,27,20.88,51.85c-4.39,7.2-11.74,15.06-24,14.4-14.88-.81-22.91-13.9-13.2-20.53,7.49-5.12,9.79-10.25,8.5-20.06"/><path class="cls-16" d="M206.34,197a81.74,81.74,0,0,1,7.28,6.09,86.35,86.35,0,0,1,6.55,6.83,56.86,56.86,0,0,1,10.1,16.38,34.1,34.1,0,0,1,2.19,9.78,26.87,26.87,0,0,1-1.26,10.18,32.27,32.27,0,0,1-4.66,8.91,34.6,34.6,0,0,1-6.81,7.31,26.26,26.26,0,0,1-9.12,4.72,27,27,0,0,1-10.18.86,25.59,25.59,0,0,1-9.79-3,18.68,18.68,0,0,1-7.59-7.45,12.26,12.26,0,0,1-1.4-5.64,10.38,10.38,0,0,1,1.76-5.72c.26-.43.59-.79.88-1.18s.65-.71,1-1,.7-.63,1.08-.89.77-.56,1-.73a33.36,33.36,0,0,0,3.35-2.53,15.14,15.14,0,0,0,4.55-6.49,37.46,37.46,0,0,0,1.59-8.75.12.12,0,0,1,.13-.11.16.16,0,0,1,.1.08,21,21,0,0,1,1.36,9.49,15.26,15.26,0,0,1-1.47,4.94,17.13,17.13,0,0,1-3,4.21,27.2,27.2,0,0,1-3.76,3.24l-.81.62c-.26.18-.45.4-.68.59s-.39.43-.59.63-.34.44-.47.68a5.77,5.77,0,0,0,.09,6.07,13.26,13.26,0,0,0,5.5,5,20.78,20.78,0,0,0,7.68,2.13,21.35,21.35,0,0,0,8-.77,20.36,20.36,0,0,0,7-3.77,30.89,30.89,0,0,0,5.6-6.11,26.52,26.52,0,0,0,3.81-7.26,24.35,24.35,0,0,0-.75-16,53.39,53.39,0,0,0-8.83-14.83A91.62,91.62,0,0,0,203.34,201l-.06-.05a2.5,2.5,0,0,1,3.06-3.95Z"/><path class="cls-15" d="M47.47,197.93s-21.78,42.49-7.21,65.6c7.47,16.11,39.91,21.65,47,7.83,4.6-9,2.76-17.88-14-26.67-16.73-14.34-11.73-43.27-11.73-43.27S57.05,201.41,47.47,197.93Z"/><path class="cls-17" d="M130.65,221.81q6.91,3.65,13.78,7a8.29,8.29,0,0,1,2,4.12,9.5,9.5,0,0,1-1.8,2.76,61.39,61.39,0,0,0-8.5.45q-5.05,1.32-10.18,3.06l-1.15,1.56a4.25,4.25,0,0,0,.48,1.31,1.25,1.25,0,0,1,1.7.29q1.45,4.2,3.2,8.36a5.83,5.83,0,0,0,.29,2.86,7.74,7.74,0,0,0-2.3,2.15l-.62-.46a.9.9,0,0,0-1,.43,11,11,0,0,0-2.33-1.72,66.19,66.19,0,0,1-3.26-7l-.81.12q-6.31,7.59-12.63,16.15a17.3,17.3,0,0,1-2.24.75l-.8,1.09a5.81,5.81,0,0,0-3.25-.48l-.08-.54a1.38,1.38,0,0,0-1.67,0l-1.39-1a2.37,2.37,0,0,1,.4-1.86l-.77-.57q5.85-7.93,11.12-16c.15-.86.27-1.57.37-2.13l-1.62.24a1.91,1.91,0,0,0-1.63-.72c-1.11,0-2.26,0-3.44.11l-.94-.69a13.91,13.91,0,0,0-3.35.64,3.22,3.22,0,0,0-1.21-.64,5.25,5.25,0,0,0-.17-2,27.45,27.45,0,0,1,2.19-2q3.39-1.35,6.67-2.53l7.52-1.41q7-2.3,13.34-5.06-5-2-10.08-3.59A40.49,40.49,0,0,1,112,221a4.21,4.21,0,0,0-.45-3,2.84,2.84,0,0,1,.88-1.52,4.39,4.39,0,0,1,1.54-.79,20.23,20.23,0,0,0,3.72.83A131.1,131.1,0,0,0,130.65,221.81ZM155,233.75c.57.1,1.19.24,1.86.41l.71,1a1.78,1.78,0,0,1,.2,1.35,2.1,2.1,0,0,1,1.17,1.35,1.6,1.6,0,0,0-.45,1.59,1.88,1.88,0,0,0,2.05-.18,66.3,66.3,0,0,1,7.73,4.5,9.51,9.51,0,0,1,2.11,3c-.38,1.17-.83,2.43-1.36,3.8q-5.87,2.4-11.83,5l-4.32.65a1.09,1.09,0,0,0-1,.7.76.76,0,0,0,.27.93,6.94,6.94,0,0,1,3.25.48q.15-.85.54-1.05l4.66,3.44a35.17,35.17,0,0,0,3.06,4.65,51.45,51.45,0,0,0,1.67,6.52,11.89,11.89,0,0,1-.35,5,7.94,7.94,0,0,1-1,1.67,41,41,0,0,0-5.14,4.37l-5.24,1.9q-3.79.57-7.53,1.41a58,58,0,0,0-10.82.67,71.89,71.89,0,0,1-9.79-1.7l-2.18-1.61a17.67,17.67,0,0,1-3.65-1.24q-2.37-2-4.47-4a48.24,48.24,0,0,0-2.74-4.42q-.3-2.87-.86-5.68a9.36,9.36,0,0,1,2.51-4.39,21.12,21.12,0,0,0,4.46-3.43q3.51-1.5,6.63-2.8a20,20,0,0,1,6.4-1.52,2.75,2.75,0,0,0,.54-1l-1.09-.8a1.86,1.86,0,0,1,2-.44c-.19-.62-.12-1.05.22-1.28l.93.69a24.19,24.19,0,0,0,3.95.51c-.27-1.16-.59-2.36-1-3.59a46.28,46.28,0,0,0,1.18-6.81l2-2.65a27.58,27.58,0,0,1,7-4.31A57.61,57.61,0,0,1,155,233.75Zm-32.09,32.77a8.45,8.45,0,0,0-2.54,1.49l-1.26,1.71a5.27,5.27,0,0,0,1.18,3.27,25.9,25.9,0,0,1,3.58,2.64,4.52,4.52,0,0,1,3.37,1.29,3.68,3.68,0,0,0,1.36-.2,40.15,40.15,0,0,1,2.56-3.15l-.12-.82A54,54,0,0,1,122.89,266.52Zm19-7.85a7.13,7.13,0,0,0-2.27,2.42,17,17,0,0,1-5.6.43l-3.7,1.11a11,11,0,0,1,1.56,2.11A15.35,15.35,0,0,0,136,267.3a3.19,3.19,0,0,1,.93-.28q2.56-3.15,5-5.87A13,13,0,0,0,141.89,258.67ZM137.44,210a15.82,15.82,0,0,1,5.54,1.93,8.5,8.5,0,0,0,1.88,2.34,20.15,20.15,0,0,1-.45,2.56q-1.41,1.59-2.79,3.46a10.69,10.69,0,0,1-4.44.81c-.58-.74-1.17-1-1.79-.84a10.57,10.57,0,0,1-1.87-2.34l.34-.47A4.31,4.31,0,0,0,132.8,215l.46-.63c-.22-1.44-.4-2.61-.53-3.51a1.86,1.86,0,0,1,1.31-.47.8.8,0,0,0,.15-.86,4.43,4.43,0,0,1,2.16-.81C137.12,208.65,137.48,209.07,137.44,210Zm12.21,52.48q-1.34,3.11-3,6.94l-.77.39a22,22,0,0,0,3.42,2.53c-.18,0-.32.21-.4.54s.13.7.64,1.08a2.85,2.85,0,0,1-1,.7,6.21,6.21,0,0,0-4.25.23c-.19,0-.21.17-.08.43a8.28,8.28,0,0,1-2.63,0,6.22,6.22,0,0,0-2.56,3.15c2.5.08,5,.26,7.54.52,1.8-.27,3.56-.49,5.29-.66a5.44,5.44,0,0,1,2.35-.91,8.18,8.18,0,0,0,1.94-3.61,45.57,45.57,0,0,0-3-8.67Zm5.63-20.34a6.17,6.17,0,0,0-2.77.83q-3.66,2.35-7,4.93a1.49,1.49,0,0,0-.72,1.63c1.93,0,3.88.06,5.84.22,3-.64,6.06-1.37,9.07-2.2a1.56,1.56,0,0,0,.37-1.16C158.59,245.14,157,243.72,155.28,242.14Zm10.12-16.32a98.64,98.64,0,0,1,10.18,7c1,.87,1.93,1.83,2.93,2.88-.31,1.06-.63,2.26-1,3.6-1,.06-2.07.08-3.17.07a132.37,132.37,0,0,0-14.71-7.74L152.73,227a5.62,5.62,0,0,0-1.68-2l.57-.77a34.13,34.13,0,0,1-1.11-3.7l1.15-1.56q.22-.31.81-.12Q158.8,222.4,165.4,225.82Z"/></g></g></svg>