<svg xmlns="http://www.w3.org/2000/svg" viewBox="0 0 252.66 338.61"><defs><style>.cls-1{fill:#fff;}.cls-10,.cls-2{fill:#e15235;}.cls-3{fill:#f39f7d;}.cls-4{fill:#ffc542;}.cls-5{fill:#fda295;}.cls-6{fill:#4c180c;}.cls-7{fill:#fffeff;}.cls-11,.cls-12,.cls-8,.cls-9{fill:none;}.cls-10,.cls-11,.cls-12,.cls-13,.cls-14,.cls-8,.cls-9{stroke:#661b04;stroke-linecap:round;}.cls-8,.cls-9{stroke-linejoin:round;}.cls-8{stroke-width:4px;}.cls-9{stroke-width:4.22px;}.cls-10,.cls-11,.cls-12,.cls-13,.cls-14{stroke-miterlimit:10;}.cls-10,.cls-12{stroke-width:4.02px;}.cls-11{stroke-width:3.84px;}.cls-13{fill:#ffa619;stroke-width:2.41px;}.cls-14{fill:#3d7663;stroke-width:3.16px;}</style></defs><title>桃花盛开</title><g id="图层_2" data-name="图层 2"><g id="图层_5" data-name="图层 5"><path class="cls-1" d="M121.59,240.18c-43,5.35-59-9.85-59-9.85l-.49-.2a103.76,103.76,0,0,1,6.75-14.28C81.72,219.19,98,220,118.74,217a154.69,154.69,0,0,1,2.86,23.2Z"/><path class="cls-2" d="M121.6,240.18c.81,18-1.75,40.58-18.94,44.43-29.34,6.6-47.74-5.14-47.74-5.14-.24-1.77-.42-3.52-.52-5.25-1.1-17.16,3.45-33.2,7.73-44.09l.49.2s15.93,15.2,59,9.85Z"/><path class="cls-3" d="M157.77,92.07l-.11-.09a11.84,11.84,0,0,0-10.28-2.7,12.1,12.1,0,0,0-9.16,14.46,12.32,12.32,0,0,0,5.16,7.69,8.74,8.74,0,0,0,7.68,2.11,5.79,5.79,0,0,0,.63-.17c.25,0,.52-.08.78-.13a12.12,12.12,0,0,0,9.17-14.48,12.44,12.44,0,0,0-3-5.81C158.37,92.64,158.07,92.35,157.77,92.07Zm-98-29.32.32-.29C82.56,43.16,107.43,39,107.43,39s24.59-6.4,53.07,2.28A95.47,95.47,0,0,1,185.41,53a59.57,59.57,0,0,1,8.32,6.58s0,0,0,0a67.48,67.48,0,0,1,11,13.54,90.24,90.24,0,0,0,5.77,8.32h0c4.06,5.22,8.21,9.59,13.53,16.73a89,89,0,0,1,9.31,14.95l-.85.39c-37.2-10.89-59.1-.55-82,9.59-17,7.5-23.34,7.73-23.34,7.73s-5.9,2.38-24.45,2.42c-25.42.06-50-.51-80.24,25.85h0a85.68,85.68,0,0,1,2.44-18.61c1.95-8.69,4-14.36,5.56-20.81a94.08,94.08,0,0,0,1.89-9.92,67.32,67.32,0,0,1,4.73-17.3v0a0,0,0,0,0,0,0,60,60,0,0,1,4.72-8.93A96.12,96.12,0,0,1,59.81,62.75Zm57.9,14.49a11.51,11.51,0,0,0,3.86-1.6A11.75,11.75,0,0,1,117,54.09a11.77,11.77,0,1,0,.72,23.15Z"/><path class="cls-4" d="M59.67,62.58l.14.17a96.12,96.12,0,0,0-18,20.71,60,60,0,0,0-4.72,8.93,0,0,0,0,1,0,0,0,0,0,0,0,0,0c-6.33-2.18-11-7.27-14.39-13.5,17.58-4.48,25-22.25,25-22.25A62.68,62.68,0,0,0,59.67,62.58Z"/><path class="cls-4" d="M47.72,56.69s-7.43,17.77-25,22.25a63.18,63.18,0,0,1-6-17.06S31,57.64,34.14,47.52C39.53,51.5,44,54.49,47.72,56.69Z"/><path class="cls-4" d="M16.74,61.88c-1.66-8-1.93-15.5-1.35-19.59.63-4.37,5-5.62,7.66-3.46,4.06,3.33,7.75,6.2,11.09,8.69C31,57.64,16.74,61.88,16.74,61.88Z"/><path class="cls-3" d="M211.92,186.92s52.51,37.76,35.26,63.06c-9.36,10.63-18.67,17.33-30.7,8.12l-1.24.18a208.06,208.06,0,0,0-9.28-36.7,253.71,253.71,0,0,0-9.43-23.69l-2.63-.54A103.5,103.5,0,0,0,211.92,186.92Z"/><path class="cls-1" d="M238.21,134.62c.3,17.68-5.16,36.8-26.29,52.3a103.5,103.5,0,0,1-18,10.43c-11.54,5.34-25.92,9.9-43.73,13.38-2,.4-4,.77-6,1.13-9.15,2.29-17.61,4-25.43,5.12-20.73,3-37,2.21-49.86-1.13a68.21,68.21,0,0,1-13.79-5.14c-14.63-7.4-23.08-19-28.24-31.16a49.87,49.87,0,0,1-4.35-20.47h0c30.22-26.36,54.82-25.79,80.24-25.85,18.55,0,24.45-2.42,24.45-2.42s6.36-.23,23.34-7.73c22.87-10.14,44.77-20.48,82-9.59l.85-.39A50,50,0,0,1,238.21,134.62Zm-46.64,13.94c9.81-2.09,16.49-9.69,14.94-17s-10.75-11.52-20.56-9.45-16.49,9.7-14.94,17S181.77,150.65,191.57,148.56ZM72,182.61c9.81-2.09,16.5-9.7,15-17s-10.75-11.52-20.56-9.44-16.5,9.69-14.95,17S62.2,184.69,72,182.61Z"/><path class="cls-3" d="M232.85,61.62c1.87,7.51-12.33,21.2-22.33,19.8h0a90.24,90.24,0,0,1-5.77-8.32,67.48,67.48,0,0,0-11-13.54h0c.7.25,10,3.43,35-.5A3.61,3.61,0,0,1,232.85,61.62Z"/><path class="cls-2" d="M215.24,258.28c1.34,9.26,1.74,18.51.53,26.93l-2.57,1s-19.33,10.14-48,1.08c-17.48-5.51-19.23-32.74-17.93-53.15,43.31,5.24,58.69-12.54,58.69-12.54A208.06,208.06,0,0,1,215.24,258.28Z"/><path class="cls-3" d="M138.73,324.31a41.86,41.86,0,0,1-12.83-.45c-.12,2.48-1.11,7.09-7.51,9.55-2.42.93-16.3,1.32-26.19-.45-9.09-1.64-16.94-2.42-25.06-15.9-5.31-8.83-5.27-11.84-10.52-28.79a73.32,73.32,0,0,1-1.7-8.8s18.4,11.74,47.74,5.14c17.19-3.85,19.75-26.41,18.94-44.43a154.69,154.69,0,0,0-2.86-23.2c7.82-1.16,16.28-2.83,25.43-5.12,2-.36,4-.73,6-1.13v0a191.89,191.89,0,0,0-2.9,23.37c-1.3,20.41.45,47.64,17.93,53.15,28.67,9.06,48-1.08,48-1.08l2.57-1a52.63,52.63,0,0,1-2.39,9.88c-6.67,16.44-9.5,19.18-15.54,27.51-9.24,12.76-17.12,12.87-26.32,13.73-10,.93-23.81-.64-26.13-1.78-6.17-3-6.75-7.75-6.66-10.22Z"/><path class="cls-5" d="M206.51,131.57c1.55,7.3-5.13,14.9-14.94,17s-19-2.15-20.56-9.44,5.13-14.91,14.94-17S205,124.27,206.51,131.57Z"/><path class="cls-4" d="M199.67,23a66.3,66.3,0,0,1,1.73,16.94l-.16,0c-13.37,4.77-30.24-8.64-31.48-9.64,2.29-3.35,5-7.7,8.1-13.29C186.59,25.17,199.67,23,199.67,23Z"/><path class="cls-4" d="M201.24,39.91l.16,0c-.3,7.62-2.44,14.77-7.63,19.62l0,0A59.57,59.57,0,0,0,185.41,53,95.47,95.47,0,0,0,160.5,41.31s3.09-1.92,9.26-11C171,31.27,187.87,44.68,201.24,39.91Z"/><path class="cls-1" d="M196.53,197.89A253.71,253.71,0,0,1,206,221.58s-15.38,17.78-58.69,12.54a191.89,191.89,0,0,1,2.9-23.37v0c17.81-3.48,32.19-8,43.73-13.38Z"/><path class="cls-4" d="M199.67,23s-13.08,2.18-21.81-6c2-3.6,4.21-7.72,6.57-12.44,1.52-3.06,6.06-3.71,8.41,0C195,8.06,197.86,15,199.67,23Z"/><path class="cls-1" d="M157.66,92l.11.09c.3.28.6.57.88.88a12.44,12.44,0,0,1,3,5.81,12.12,12.12,0,0,1-9.17,14.48c-.26.05-.53.1-.78.13a9,9,0,1,0-11.12-6.83,9.07,9.07,0,0,0,2.81,4.89,12.32,12.32,0,0,1-5.16-7.69,12.1,12.1,0,0,1,9.16-14.46A11.84,11.84,0,0,1,157.66,92Z"/><path class="cls-6" d="M157.82,102.87a8.92,8.92,0,0,1-6.13,10.5,11.73,11.73,0,0,1-8.31-1.94,9.07,9.07,0,0,1-2.81-4.89,8.82,8.82,0,1,1,17.25-3.67Zm-6.45-.3a.57.57,0,0,0-.24-1.12.58.58,0,0,0-.44.68A.56.56,0,0,0,151.37,102.57Zm-1.23-.32a.58.58,0,0,0,.44-.69.59.59,0,0,0-.68-.45.57.57,0,0,0-.43.68A.56.56,0,0,0,150.14,102.25ZM147.83,106a1.64,1.64,0,1,0-1.92-1.28A1.63,1.63,0,0,0,147.83,106Z"/><path class="cls-7" d="M151.8,101.89a.56.56,0,0,1-.43.68.56.56,0,0,1-.68-.44.58.58,0,0,1,.44-.68A.56.56,0,0,1,151.8,101.89Z"/><path d="M151.69,113.37a5.79,5.79,0,0,1-.63.17,8.74,8.74,0,0,1-7.68-2.11A11.73,11.73,0,0,0,151.69,113.37Z"/><path d="M150.58,101.56a.58.58,0,0,1-.44.69.56.56,0,0,1-.67-.46.57.57,0,0,1,.43-.68A.59.59,0,0,1,150.58,101.56Z"/><path class="cls-7" d="M149.06,104.1a1.61,1.61,0,0,1-1.23,1.94,1.64,1.64,0,1,1,1.23-1.94Z"/><path class="cls-4" d="M121.57,75.64a11.51,11.51,0,0,1-3.86,1.6A11.78,11.78,0,1,1,117,54.09a11.75,11.75,0,0,0,4.58,21.55Z"/><path class="cls-5" d="M86.94,165.62c1.55,7.29-5.14,14.9-15,17s-19-2.15-20.56-9.44,5.15-14.9,14.95-17S85.39,158.32,86.94,165.62Z"/><path class="cls-3" d="M68.88,215.85a103.76,103.76,0,0,0-6.75,14.28C57.85,241,53.3,257.06,54.4,274.22l-2.36.17c-12.75,8.16-26.29,3.44-34.7-7.95C6.49,245.7,54.92,211.05,54.92,211.05l.17-.34A68.21,68.21,0,0,0,68.88,215.85Z"/><path class="cls-3" d="M37.1,92.44h0a67.32,67.32,0,0,0-4.73,17.3,94.08,94.08,0,0,1-1.89,9.92c-8.54,5.37-27.11-1.35-28.45-9a3.61,3.61,0,0,1,2.68-4C29.21,100.07,36.57,93,37.1,92.44Z"/><path class="cls-8" d="M68.88,215.85a103.76,103.76,0,0,0-6.75,14.28C57.85,241,53.3,257.06,54.4,274.22c.1,1.73.28,3.48.52,5.25a73.32,73.32,0,0,0,1.7,8.8c5.25,17,5.21,20,10.52,28.79,8.12,13.48,16,14.26,25.06,15.9,9.89,1.77,23.77,1.38,26.19.45,6.4-2.46,7.39-7.07,7.51-9.55"/><path class="cls-8" d="M59.67,62.58a62.68,62.68,0,0,1-12-5.89c-3.69-2.2-8.19-5.19-13.58-9.17-3.34-2.49-7-5.36-11.09-8.69-2.63-2.16-7-.91-7.66,3.46-.58,4.09-.31,11.57,1.35,19.59a63.18,63.18,0,0,0,6,17.06c3.39,6.23,8.06,11.32,14.39,13.5h0"/><path class="cls-8" d="M37.12,92.42a0,0,0,0,0,0,0c-.53.51-7.89,7.63-32.37,14.23a3.61,3.61,0,0,0-2.68,4c1.34,7.63,19.91,14.35,28.45,9"/><path class="cls-8" d="M16.74,61.88S31,57.64,34.14,47.52h0"/><path class="cls-8" d="M47.72,56.69s-7.43,17.77-25,22.25"/><path class="cls-8" d="M127.2,130.81s-5.9,2.38-24.45,2.42c-25.42.06-50-.51-80.24,25.85"/><path class="cls-8" d="M127.2,130.81s6.36-.23,23.34-7.73c22.87-10.14,44.77-20.48,82-9.59"/><path class="cls-8" d="M94.4,90.79s-.92-2.62-3.27-.27"/><path class="cls-8" d="M52,274.39c-12.75,8.16-26.29,3.44-34.7-7.95C6.49,245.7,54.92,211.05,54.92,211.05"/><path class="cls-8" d="M118.74,217a154.69,154.69,0,0,1,2.86,23.2c.81,18-1.75,40.58-18.94,44.43-29.34,6.6-47.74-5.14-47.74-5.14"/><polyline class="cls-8" points="136.69 297.07 133.15 298.85 128.5 301.19"/><polyline class="cls-8" points="129.51 295.09 133.15 298.85 136.47 302.29"/><path class="cls-8" d="M62.62,230.33s15.93,15.2,59,9.85"/><path class="cls-8" d="M82.61,110.64a7.76,7.76,0,0,1-7.46-.76"/><path class="cls-8" d="M196.53,197.89A253.71,253.71,0,0,1,206,221.58a208.06,208.06,0,0,1,9.28,36.7c1.34,9.26,1.74,18.51.53,26.93a52.63,52.63,0,0,1-2.39,9.88c-6.67,16.44-9.5,19.18-15.54,27.51-9.24,12.76-17.12,12.87-26.32,13.73-10,.93-23.81-.64-26.13-1.78-6.17-3-6.75-7.75-6.66-10.22"/><path class="cls-8" d="M210.51,81.42a90.24,90.24,0,0,1-5.77-8.32,67.48,67.48,0,0,0-11-13.54s0,0,0,0A59.57,59.57,0,0,0,185.41,53,95.47,95.47,0,0,0,160.5,41.31C132,32.63,107.43,39,107.43,39s-24.87,4.13-47.3,23.43"/><path class="cls-8" d="M60.13,62.46l-.32.29a96.12,96.12,0,0,0-18,20.71,60,60,0,0,0-4.72,8.93,0,0,0,0,1,0,0v0a67.32,67.32,0,0,0-4.73,17.3,94.08,94.08,0,0,1-1.89,9.92c-1.59,6.45-3.61,12.12-5.56,20.81a85.68,85.68,0,0,0-2.44,18.61,49.87,49.87,0,0,0,4.35,20.47c5.16,12.16,13.61,23.76,28.24,31.16a68.21,68.21,0,0,0,13.79,5.14C81.72,219.19,98,220,118.74,217c7.82-1.16,16.28-2.83,25.43-5.12,2-.36,4-.73,6-1.13,17.81-3.48,32.19-8,43.73-13.38a103.5,103.5,0,0,0,18-10.43c21.13-15.5,26.59-34.62,26.29-52.3a50,50,0,0,0-4.85-21.52,89,89,0,0,0-9.31-14.95c-5.32-7.14-9.47-11.51-13.53-16.73"/><path class="cls-8" d="M160.5,41.31s3.09-1.92,9.26-11c2.29-3.35,5-7.7,8.1-13.29,2-3.6,4.21-7.72,6.57-12.44,1.52-3.06,6.06-3.71,8.41,0C195,8.06,197.86,15,199.67,23a66.3,66.3,0,0,1,1.73,16.94c-.3,7.62-2.44,14.77-7.63,19.62h0v0"/><path class="cls-8" d="M193.73,59.53l0,0c.7.25,10,3.43,35-.5a3.61,3.61,0,0,1,4.08,2.57c1.87,7.51-12.33,21.2-22.33,19.8h0"/><path class="cls-8" d="M199.67,23s-13.08,2.18-21.81-6v0"/><path class="cls-8" d="M169.69,30.22a.21.21,0,0,1,.07.05c1.24,1,18.11,14.41,31.48,9.64"/><path class="cls-8" d="M151.69,113.37c.25,0,.52-.08.78-.13a12.12,12.12,0,0,0,9.17-14.48,12.44,12.44,0,0,0-3-5.81c-.28-.31-.58-.6-.88-.88"/><path class="cls-8" d="M157.66,92a11.84,11.84,0,0,0-10.28-2.7,12.1,12.1,0,0,0-9.16,14.46,12.32,12.32,0,0,0,5.16,7.69"/><path class="cls-8" d="M142.47,83.29s-.21-2.77,2.88-1.57"/><path class="cls-8" d="M216.48,258.1c12,9.21,21.34,2.51,30.7-8.12,17.25-25.3-35.26-63.06-35.26-63.06"/><path class="cls-8" d="M150.17,210.75a191.89,191.89,0,0,0-2.9,23.37c-1.3,20.41.45,47.64,17.93,53.15,28.67,9.06,48-1.08,48-1.08"/><path class="cls-8" d="M206,221.58s-15.38,17.78-58.69,12.54"/><path class="cls-8" d="M157.6,91.94l.06,0,.11.09a5.42,5.42,0,0,0,6.34-.37"/><path class="cls-8" d="M95,146.4s5.09-5.85,6.65-.33"/><path class="cls-8" d="M149,130.56a2.25,2.25,0,0,1,2,.55"/><path class="cls-8" d="M112.15,318.61a39.56,39.56,0,0,0,13.75,5.25,41.86,41.86,0,0,0,12.83.45,44.25,44.25,0,0,0,13.74-4"/><path class="cls-8" d="M130,151.44a6.27,6.27,0,0,1-.06.73c-.3,3.2-2.47,15.71-17.5,11.57"/><path class="cls-8" d="M129.59,151.53s.12.24.34.64c1.57,2.77,8.65,13.36,20.71,3.45"/><path class="cls-8" d="M103.1,108.84S90,101.92,78,114.9"/><path class="cls-9" d="M138.22,103.74a12,12,0,1,0,23.42-5,12.45,12.45,0,0,0-3-5.82,11.92,11.92,0,0,0-11.28-3.67A12.1,12.1,0,0,0,138.22,103.74Z"/><path class="cls-10" d="M73,221.41a12.55,12.55,0,0,0-12.63-12.48,12.85,12.85,0,0,0-3.24.43A12.63,12.63,0,0,0,32.11,211a12.7,12.7,0,0,0-5.67-1.35,12.46,12.46,0,0,0-3.21,24.54,12.29,12.29,0,0,0-1.94,6.62,12.65,12.65,0,0,0,22.49,7.77,12.64,12.64,0,0,0,22.72-7.47,12.34,12.34,0,0,0-2.72-7.73A12.48,12.48,0,0,0,73,221.41Z"/><path class="cls-11" d="M44,250.28s4.3,21.09-3.28,37.09"/><line class="cls-12" x1="51.21" y1="224.67" x2="59.46" y2="222.36"/><line class="cls-12" x1="28.29" y1="222.51" x2="34.77" y2="224.19"/><line class="cls-12" x1="48.14" y1="234.62" x2="53.84" y2="240.57"/><line class="cls-12" x1="44.57" y1="211.54" x2="44.01" y2="219.71"/><line class="cls-12" x1="39.08" y1="235.25" x2="35.9" y2="241.33"/><ellipse class="cls-13" cx="43.65" cy="227.83" rx="8.21" ry="8.11"/><path class="cls-14" d="M44.69,271.91s3.57-10,16.52-5.81C61.21,272.11,54.8,276.12,44.69,271.91Z"/><path class="cls-1" d="M72.7,245.74a5.15,5.15,0,1,0,5.15,5.15A5.16,5.16,0,0,0,72.7,245.74Zm1.77,6.92H70.93v-3.54h3.54Z"/><path class="cls-1" d="M100.12,253.07a5.15,5.15,0,1,0,5.15,5.14A5.15,5.15,0,0,0,100.12,253.07ZM101.9,260H98.35v-3.55h3.55Z"/><path class="cls-1" d="M76.31,267.28a5.15,5.15,0,1,0,5.15,5.14A5.14,5.14,0,0,0,76.31,267.28Zm1.77,6.92H74.54v-3.55h3.54Z"/><path class="cls-1" d="M164.86,246.14a5.15,5.15,0,1,0,5.15,5.15A5.16,5.16,0,0,0,164.86,246.14Zm1.78,6.93h-3.55v-3.55h3.55Z"/><path class="cls-1" d="M199.82,246.24a5.15,5.15,0,1,0,4,4A5.15,5.15,0,0,0,199.82,246.24Zm.76,6.83H197v-3.55h3.54Z"/><path class="cls-1" d="M186.84,269.57a5.15,5.15,0,1,0,4,4.05A5.16,5.16,0,0,0,186.84,269.57Zm.77,6.83h-3.55v-3.55h3.55Z"/></g></g></svg>